<?xml version="1.0" encoding="UTF-8"?> <svg xmlns="http://www.w3.org/2000/svg" width="408" height="320" viewBox="0 0 408 320" fill="none"><path fill-rule="evenodd" clip-rule="evenodd" d="M163.137 201.015H155.086H148.764H140.712C131.01 201.015 123.145 208.901 123.145 218.628V236.819H169.704L170.555 234.445C171.459 231.925 171.92 229.268 171.92 226.591V209.821C171.92 204.958 167.988 201.015 163.137 201.015Z" fill="#D9D9D9"></path><path fill-rule="evenodd" clip-rule="evenodd" d="M213.572 249.035H238.374C250.022 249.035 259.552 258.59 259.552 270.269C259.552 281.948 250.022 291.503 238.374 291.503H212.179C223.827 291.503 233.357 281.948 233.357 270.269C233.357 259.059 224.578 249.806 213.572 249.081" fill="#9E9E9E"></path><path d="M213.572 249.035H238.374C250.022 249.035 259.552 258.59 259.552 270.269C259.552 281.948 250.022 291.503 238.374 291.503H212.179C223.827 291.503 233.357 281.948 233.357 270.269C233.357 259.059 224.578 249.806 213.572 249.081" stroke="#333333" stroke-width="2.8" stroke-linecap="round"></path><path d="M97.5989 291.503H270.076" stroke="#333333" stroke-width="2.8" stroke-linecap="round"></path><path fill-rule="evenodd" clip-rule="evenodd" d="M205.9 254.639H179.705H179.657H177.815H162.698H140.487H136.504H136.456C124.808 254.639 115.277 264.194 115.277 275.873V275.873C115.277 282.041 117.937 287.614 122.161 291.503H220.195C224.419 287.614 227.078 282.041 227.078 275.873V275.873C227.078 264.194 217.548 254.639 205.9 254.639Z" fill="#D9D9D9"></path><path d="M237.992 259.618H248.506" stroke="#333333" stroke-width="2.8" stroke-linecap="round"></path><path d="M233.31 270.269C233.31 281.947 223.779 291.503 212.132 291.503H168.93C157.282 291.503 147.752 281.947 147.752 270.269C147.752 258.59 157.282 249.035 168.93 249.035" stroke="#333333" stroke-width="2.8" stroke-linecap="round"></path><path d="M240.162 270.201H253.105" stroke="#333333" stroke-width="2.8" stroke-linecap="round"></path><path d="M237.992 280.784H248.506" stroke="#333333" stroke-width="2.8" stroke-linecap="round"></path><path fill-rule="evenodd" clip-rule="evenodd" d="M278.404 167.529L283.726 172.865L283.73 172.869C289.084 178.237 289.084 186.941 283.73 192.309L250.795 225.33C243.935 232.209 232.812 232.209 225.952 225.33L215.788 215.14C212.358 211.701 212.358 206.125 215.788 202.686L227.614 190.828C229.502 188.934 231.703 187.383 234.119 186.242" fill="#9E9E9E"></path><path d="M278.404 167.529L283.726 172.865L283.73 172.869C289.084 178.237 289.084 186.941 283.73 192.309L250.795 225.33C243.935 232.209 232.812 232.209 225.952 225.33L215.788 215.14C212.358 211.701 212.358 206.125 215.788 202.686L227.614 190.828C229.502 188.934 231.703 187.383 234.119 186.242" stroke="#333333" stroke-width="2.8" stroke-linecap="round"></path><path fill-rule="evenodd" clip-rule="evenodd" d="M222.292 185.492L210.466 197.35C207.036 200.788 207.036 206.365 210.466 209.804L220.629 219.994C227.49 226.873 238.612 226.873 245.473 219.994L278.407 186.972C283.762 181.604 283.762 172.901 278.407 167.532L278.404 167.529C274.314 163.428 268.098 162.342 262.866 164.813L235.977 177.515" fill="white"></path><path d="M222.292 185.492L210.466 197.35C207.036 200.788 207.036 206.365 210.466 209.804L220.629 219.994C227.49 226.873 238.612 226.873 245.473 219.994L278.407 186.972C283.762 181.604 283.762 172.901 278.407 167.532L278.404 167.529C274.314 163.428 268.098 162.342 262.866 164.813L235.977 177.515" stroke="#333333" stroke-width="2.8" stroke-linecap="round"></path><path d="M265.847 191.641L261.972 187.755C260.774 186.555 259.149 185.88 257.455 185.88H253.765C252.071 185.88 250.446 185.205 249.248 184.004L241.105 175.839" stroke="#333333" stroke-width="2.8" stroke-linecap="round"></path><path fill-rule="evenodd" clip-rule="evenodd" d="M260.211 214.896L255.538 210.94C255.538 198.559 245.528 188.523 233.179 188.523H218.278L209.475 197.35C206.045 200.789 206.045 206.365 209.475 209.805L219.638 219.994L224.96 225.33C231.821 232.209 242.944 232.209 249.804 225.33L260.211 214.896Z" fill="#333333"></path><path fill-rule="evenodd" clip-rule="evenodd" d="M182.953 237.62H235.176C239.586 237.62 243.161 234.035 243.161 229.614V202.333C243.161 189.953 233.151 179.916 220.803 179.916H163.117" fill="white"></path><path d="M158.56 237.62H235.176C239.586 237.62 243.161 234.035 243.161 229.614V202.333C243.161 189.953 233.151 179.916 220.803 179.916H154.43" stroke="#333333" stroke-width="2.8" stroke-linecap="round"></path><path d="M124.367 237.62H182.954V202.333C182.954 189.953 172.944 179.916 160.595 179.916H146.725C141.422 179.916 136.549 181.768 132.716 184.862" stroke="#333333" stroke-width="2.8" stroke-linecap="round"></path><path fill-rule="evenodd" clip-rule="evenodd" d="M216.569 212.157L212.522 216.215C211.818 216.92 210.678 216.92 209.975 216.215C209.272 215.51 209.272 214.367 209.975 213.662L214.022 209.604C214.726 208.899 215.865 208.899 216.569 209.604C217.272 210.31 217.272 211.452 216.569 212.157ZM216.541 220.245C215.838 220.95 214.698 220.95 213.994 220.245C213.292 219.54 213.292 218.397 213.994 217.692C214.698 216.987 215.838 216.987 216.541 217.692C217.244 218.397 217.244 219.54 216.541 220.245ZM208.502 212.185C207.799 212.89 206.658 212.89 205.956 212.185C205.252 211.48 205.252 210.337 205.956 209.632L213.915 201.652C214.618 200.946 215.758 200.946 216.462 201.652C217.164 202.356 217.164 203.5 216.462 204.205L208.502 212.185ZM231.19 208.346L217.862 194.982C216.454 193.57 214.151 193.57 212.743 194.982L199.414 208.346C198.007 209.757 198.007 212.066 199.414 213.477L208.321 222.407C209.491 223.58 211.077 224.239 212.732 224.239H217.873C219.527 224.239 221.114 223.58 222.284 222.407L231.19 213.477C232.598 212.066 232.598 209.757 231.19 208.346Z" fill="#333333"></path><path d="M252.257 76.0814C253.159 78.9051 256.685 80.0524 259.788 80.1108" stroke="#DFF3E4" stroke-width="2.8" stroke-linecap="round"></path><path d="M248.354 64.8477C248.354 69.4047 252.185 73.2052 256.476 74.069" stroke="#DFF3E4" stroke-width="2.8" stroke-linecap="round"></path><path d="M257.199 80.2621C256.312 82.7664 253.44 83.8465 250.988 84.3108C249.835 84.5294 249.625 86.1098 250.697 86.5869C253.997 88.056 257.648 88.8767 261.494 88.8767C261.494 88.8767 288.356 91.6131 288.566 59.5906C288.576 58.0406 291.262 55.0191 291.468 53.4595C291.531 52.9784 291.031 52.6317 290.6 52.8543C289.145 53.6084 287.579 54.1793 285.934 54.5331C285.733 54.5764 285.527 54.5075 285.383 54.3634C283.415 52.4059 280.582 51.3147 277.514 51.7118C273.026 52.293 269.545 56.1616 269.393 60.6962C269.365 61.5496 269.445 62.3839 269.629 63.1757C262.496 62.817 256.703 59.6514 252.225 54.7565C251.607 54.0808 250.483 54.301 250.201 55.1736C249.905 56.0887 249.745 57.0646 249.745 58.079C249.745 61.3423 251.401 64.2188 253.915 65.9065" stroke="#DFF3E4" stroke-width="2.8" stroke-linecap="round"></path><path d="M275.915 59.375C275.915 57.9027 277.106 56.709 278.574 56.709C280.043 56.709 281.233 57.9027 281.233 59.375" stroke="#DFF3E4" stroke-width="2.8" stroke-linecap="round"></path><path d="M269.423 61.8451C269.423 61.8451 269.595 63.2662 270.168 64.849" stroke="#DFF3E4" stroke-width="2.8" stroke-linecap="round"></path><path d="M177.008 76.6141H134.222C131.587 76.6141 129.431 74.4524 129.431 71.8105V62.951C129.431 60.309 131.587 58.1473 134.222 58.1473H166.55" stroke="#DFF3E4" stroke-width="2.8" stroke-linecap="round"></path><path fill-rule="evenodd" clip-rule="evenodd" d="M143.131 66.664C143.131 68.82 141.388 70.5677 139.238 70.5677C137.087 70.5677 135.344 68.82 135.344 66.664C135.344 64.508 137.087 62.7603 139.238 62.7603C141.388 62.7603 143.131 64.508 143.131 66.664Z" stroke="#DFF3E4" stroke-width="2.8" stroke-linecap="round"></path><path d="M148.82 64.3142H166.55" stroke="#DFF3E4" stroke-width="2.8" stroke-linecap="round"></path><path d="M148.82 69.0139H158.898" stroke="#DFF3E4" stroke-width="2.8" stroke-linecap="round"></path><path fill-rule="evenodd" clip-rule="evenodd" d="M286.14 107.92C286.14 109.636 287.527 111.027 289.239 111.027C290.951 111.027 292.339 109.636 292.339 107.92C292.339 106.203 290.951 104.812 289.239 104.812C287.527 104.812 286.14 106.203 286.14 107.92Z" stroke="#DFF3E4" stroke-width="2.8" stroke-linecap="round"></path><path d="M304.703 116.05H286.14" stroke="#DFF3E4" stroke-width="2.8" stroke-linecap="round"></path><path fill-rule="evenodd" clip-rule="evenodd" d="M283.683 100.543H306.682C308.887 100.543 310.691 102.352 310.691 104.563V113.754V118.927V125.58C310.691 127.626 308.223 128.651 306.781 127.204L302.534 122.946H283.683C281.478 122.946 279.674 121.137 279.674 118.927V104.563C279.674 102.352 281.478 100.543 283.683 100.543Z" stroke="#DFF3E4" stroke-width="2.8" stroke-linecap="round"></path><path d="M273.775 123.719V130.449V134.236V139.107C273.775 140.606 275.582 141.356 276.638 140.297L279.748 137.179H293.551C295.165 137.179 296.486 135.855 296.486 134.236V129.252" stroke="#DFF3E4" stroke-width="2.8" stroke-linecap="round"></path><path d="M301.574 78.4578V84.13" stroke="#DFF3E4" stroke-width="2.8" stroke-linecap="round"></path><path d="M304.403 81.2939H298.745" stroke="#DFF3E4" stroke-width="2.8" stroke-linecap="round"></path><path d="M164.914 28.6005V34.2727" stroke="#DFF3E4" stroke-width="2.8" stroke-linecap="round"></path><path d="M167.742 31.4367H162.085" stroke="#DFF3E4" stroke-width="2.8" stroke-linecap="round"></path><path fill-rule="evenodd" clip-rule="evenodd" d="M235.502 69.4583C235.502 71.2612 234.044 72.7231 232.246 72.7231C230.447 72.7231 228.99 71.2612 228.99 69.4583C228.99 67.6553 230.447 66.1934 232.246 66.1934C234.044 66.1934 235.502 67.6553 235.502 69.4583Z" stroke="#DFF3E4" stroke-width="2.8" stroke-linecap="round"></path><path fill-rule="evenodd" clip-rule="evenodd" d="M262.782 41.4442C262.782 42.8677 261.631 44.0222 260.211 44.0222C258.791 44.0222 257.64 42.8677 257.64 41.4442C257.64 40.0207 258.791 38.8663 260.211 38.8663C261.631 38.8663 262.782 40.0207 262.782 41.4442Z" fill="#DFF3E4"></path><path fill-rule="evenodd" clip-rule="evenodd" d="M268.418 111.027C268.418 112.451 267.267 113.605 265.847 113.605C264.427 113.605 263.276 112.451 263.276 111.027C263.276 109.604 264.427 108.449 265.847 108.449C267.267 108.449 268.418 109.604 268.418 111.027Z" fill="#DFF3E4"></path><path fill-rule="evenodd" clip-rule="evenodd" d="M216.499 50.6936L201.763 53.2412C201.489 53.2884 201.307 53.5494 201.354 53.8232L202.395 59.8782C202.442 60.152 202.702 60.3361 202.975 60.2889L212.304 58.6757C212.278 63.0526 209.138 66.7826 203.743 67.7153C197.795 68.7432 192.095 64.5297 191.07 58.5676C190.044 52.6039 194.01 46.7314 199.957 45.7035C202.331 45.2928 204.609 45.6474 206.63 46.7619C207.08 47.01 207.642 46.8876 207.938 46.4672L210.984 42.152C211.326 41.6668 211.18 40.9887 210.666 40.6933C207.236 38.7246 203.196 37.8752 198.743 38.6453C188.786 40.3666 182.111 49.8474 183.828 59.8309C185.546 69.8145 195.002 76.5067 204.959 74.7846C215.367 72.9857 220.997 64.4528 219.222 54.1306C219.104 53.4501 218.958 52.7904 218.783 52.1515C218.51 51.1476 217.521 50.5167 216.499 50.6936Z" stroke="#DFF3E4" stroke-width="2.8" stroke-linecap="round"></path><path fill-rule="evenodd" clip-rule="evenodd" d="M200.946 170.332H169.923C148.42 170.332 130.827 152.692 130.827 131.133C130.827 109.574 148.42 91.9341 169.923 91.9341H200.946C222.449 91.9341 240.042 109.574 240.042 131.133C240.042 152.692 222.449 170.332 200.946 170.332Z" fill="white"></path><path fill-rule="evenodd" clip-rule="evenodd" d="M207.081 165.88H180.327C165.339 165.88 152.26 157.305 145.705 144.81C145.934 144.297 146.067 143.733 146.067 143.136V128.458C146.067 126.184 144.211 124.322 141.942 124.322H141.939C141.599 124.322 141.326 124.029 141.351 123.689C142.405 109.878 150.68 98.0151 162.372 91.9017C144.514 95.5053 130.954 111.406 130.954 130.332V130.333C130.954 151.892 148.547 169.531 170.049 169.531H201.593C208.058 169.531 214.163 167.927 219.549 165.111C217.064 165.613 209.707 165.88 207.081 165.88Z" fill="#D9D9D9"></path><path fill-rule="evenodd" clip-rule="evenodd" d="M215.302 132.211H168.453C161.393 132.211 155.617 126.42 155.617 119.342C155.617 112.263 161.393 106.472 168.453 106.472H215.302C222.361 106.472 228.138 112.263 228.138 119.342C228.138 126.42 222.361 132.211 215.302 132.211Z" fill="#DFF5E3"></path><path d="M247.882 131.133H253.76" stroke="#333333" stroke-width="2.8" stroke-linecap="round"></path><path fill-rule="evenodd" clip-rule="evenodd" d="M252.163 131.133C252.163 128.812 254.04 126.93 256.355 126.93C258.67 126.93 260.547 128.812 260.547 131.133C260.547 133.454 258.67 135.336 256.355 135.336C254.04 135.336 252.163 133.454 252.163 131.133Z" fill="#F3F3F3"></path><path fill-rule="evenodd" clip-rule="evenodd" d="M252.163 131.133C252.163 128.812 254.04 126.93 256.355 126.93C258.67 126.93 260.547 128.812 260.547 131.133C260.547 133.454 258.67 135.336 256.355 135.336C254.04 135.336 252.163 133.454 252.163 131.133Z" stroke="#333333" stroke-width="2.8" stroke-linecap="round"></path><path d="M242.878 119.658H243.756C246.026 119.658 247.882 121.519 247.882 123.794V138.472C247.882 140.747 246.026 142.609 243.756 142.609H242.878" stroke="#333333" stroke-width="2.8" stroke-linecap="round"></path><path fill-rule="evenodd" clip-rule="evenodd" d="M177.987 126.849C175.256 126.849 173.021 124.608 173.021 121.869V116.813C173.021 114.074 175.256 111.834 177.987 111.834C180.719 111.834 182.954 114.074 182.954 116.813V121.869C182.954 124.608 180.719 126.849 177.987 126.849Z" fill="#333333"></path><path fill-rule="evenodd" clip-rule="evenodd" d="M212.217 126.849C209.485 126.849 207.25 124.608 207.25 121.869V116.813C207.25 114.074 209.485 111.834 212.217 111.834C214.948 111.834 217.183 114.074 217.183 116.813V121.869C217.183 124.608 214.948 126.849 212.217 126.849Z" fill="#333333"></path><path fill-rule="evenodd" clip-rule="evenodd" d="M209.611 136.647H175.547C174.104 136.647 172.968 137.92 173.165 139.353C174.48 148.925 182.671 156.296 192.579 156.296C202.487 156.296 210.677 148.925 211.992 139.353C212.189 137.92 211.054 136.647 209.611 136.647Z" fill="#333333"></path><path fill-rule="evenodd" clip-rule="evenodd" d="M191.78 152.744C186.878 152.744 182.525 150.196 179.994 146.332C181.72 144.529 184.142 143.402 186.831 143.402C191.759 143.402 195.805 147.173 196.265 151.993C194.85 152.471 193.346 152.744 191.78 152.744Z" fill="white"></path><path fill-rule="evenodd" clip-rule="evenodd" d="M200.946 170.332H169.923C148.42 170.332 130.827 152.692 130.827 131.133C130.827 109.574 148.42 91.9341 169.923 91.9341H200.946C222.449 91.9341 240.042 109.574 240.042 131.133C240.042 152.692 222.449 170.332 200.946 170.332Z" stroke="#333333" stroke-width="2.8" stroke-linecap="round"></path><path fill-rule="evenodd" clip-rule="evenodd" d="M135.825 142.608H130.156V119.657H135.825C138.095 119.657 139.951 121.519 139.951 123.794V138.472C139.951 140.747 138.095 142.608 135.825 142.608Z" fill="white"></path><path fill-rule="evenodd" clip-rule="evenodd" d="M135.825 142.608H130.156V119.657H135.825C138.095 119.657 139.951 121.519 139.951 123.794V138.472C139.951 140.747 138.095 142.608 135.825 142.608Z" stroke="#333333" stroke-width="2.8" stroke-linecap="round"></path><path fill-rule="evenodd" clip-rule="evenodd" d="M124.466 131.133V123.794C124.466 121.519 126.322 119.658 128.592 119.658C130.86 119.658 132.717 121.519 132.717 123.794V138.472C132.717 140.747 130.86 142.608 128.592 142.608C126.322 142.608 124.466 140.747 124.466 138.472V137.447" fill="white"></path><path d="M124.466 131.133V123.794C124.466 121.519 126.322 119.658 128.592 119.658C130.86 119.658 132.717 121.519 132.717 123.794V138.472C132.717 140.747 130.86 142.608 128.592 142.608C126.322 142.608 124.466 140.747 124.466 138.472V137.447" stroke="#333333" stroke-width="2.8" stroke-linecap="round"></path><path d="M127.66 131.133H115.682" stroke="#333333" stroke-width="2.8" stroke-linecap="round"></path><path fill-rule="evenodd" clip-rule="evenodd" d="M117.279 131.133C117.279 133.454 115.402 135.336 113.087 135.336C110.771 135.336 108.895 133.454 108.895 131.133C108.895 128.812 110.771 126.93 113.087 126.93C115.402 126.93 117.279 128.812 117.279 131.133Z" fill="#F3F3F3"></path><path fill-rule="evenodd" clip-rule="evenodd" d="M117.279 131.133C117.279 133.454 115.402 135.336 113.087 135.336C110.771 135.336 108.895 133.454 108.895 131.133C108.895 128.812 110.771 126.93 113.087 126.93C115.402 126.93 117.279 128.812 117.279 131.133Z" stroke="#333333" stroke-width="2.8" stroke-linecap="round"></path><path d="M227.029 92.0522V88.7498" stroke="#D9D9D9" stroke-width="2.8" stroke-linecap="round"></path><path d="M239.605 104.662H242.899" stroke="#D9D9D9" stroke-width="2.8" stroke-linecap="round"></path><path d="M236.677 95.0462L239.006 92.7108" stroke="#D9D9D9" stroke-width="2.8" stroke-linecap="round"></path><path fill-rule="evenodd" clip-rule="evenodd" d="M214.193 132.211H168.453C161.394 132.211 155.617 126.42 155.617 119.342C155.617 112.263 161.394 106.472 168.453 106.472H214.193C221.252 106.472 227.029 112.263 227.029 119.342C227.029 126.42 221.252 132.211 214.193 132.211Z" stroke="#333333" stroke-width="2.8" stroke-linecap="round"></path><path fill-rule="evenodd" clip-rule="evenodd" d="M198.669 291.503H155.468C143.82 291.503 134.29 281.948 134.29 270.269C134.29 258.59 143.82 249.035 155.468 249.035H198.669C210.317 249.035 219.847 258.59 219.847 270.269C219.847 281.948 210.317 291.503 198.669 291.503Z" fill="#9E9E9E"></path><path fill-rule="evenodd" clip-rule="evenodd" d="M198.669 291.503H155.468C143.82 291.503 134.29 281.948 134.29 270.269C134.29 258.59 143.82 249.035 155.468 249.035H198.669C210.317 249.035 219.847 258.59 219.847 270.269C219.847 281.948 210.317 291.503 198.669 291.503Z" stroke="#333333" stroke-width="2.8" stroke-linecap="round"></path><path fill-rule="evenodd" clip-rule="evenodd" d="M172.475 291.503H129.273C117.625 291.503 108.095 281.948 108.095 270.269C108.095 258.59 117.625 249.035 129.273 249.035H172.475C184.122 249.035 193.653 258.59 193.653 270.269C193.653 281.948 184.122 291.503 172.475 291.503Z" fill="#9E9E9E"></path><path fill-rule="evenodd" clip-rule="evenodd" d="M172.475 291.503H129.273C117.625 291.503 108.095 281.948 108.095 270.269C108.095 258.59 117.625 249.035 129.273 249.035H172.475C184.122 249.035 193.653 258.59 193.653 270.269C193.653 281.948 184.122 291.503 172.475 291.503Z" stroke="#333333" stroke-width="2.8" stroke-linecap="round"></path><path d="M198.288 259.618H208.802" stroke="#333333" stroke-width="2.8" stroke-linecap="round"></path><path fill-rule="evenodd" clip-rule="evenodd" d="M172.427 291.503H129.225C117.578 291.503 108.047 281.948 108.047 270.269C108.047 258.59 117.578 249.035 129.225 249.035H172.427C184.075 249.035 193.605 258.59 193.605 270.269C193.605 281.948 184.075 291.503 172.427 291.503Z" stroke="#333333" stroke-width="2.8" stroke-linecap="round"></path><path d="M200.458 270.201H213.4" stroke="#333333" stroke-width="2.8" stroke-linecap="round"></path><path d="M198.288 280.784H208.802" stroke="#333333" stroke-width="2.8" stroke-linecap="round"></path><path fill-rule="evenodd" clip-rule="evenodd" d="M129.202 284.498H172.546C180.384 284.498 186.738 278.127 186.738 270.269C186.738 262.411 180.384 256.04 172.546 256.04H129.202C121.365 256.04 115.011 262.411 115.011 270.269C115.011 278.127 121.365 284.498 129.202 284.498Z" stroke="#333333" stroke-width="2.8" stroke-linecap="round"></path><path fill-rule="evenodd" clip-rule="evenodd" d="M172.475 249.035H129.273C117.625 249.035 108.095 258.59 108.095 270.269C108.095 281.948 117.625 291.503 129.273 291.503H172.475C184.122 291.503 193.653 281.948 193.653 270.269C193.653 258.59 184.122 249.035 172.475 249.035Z" fill="white"></path><path fill-rule="evenodd" clip-rule="evenodd" d="M172.475 249.035H129.273C117.625 249.035 108.095 258.59 108.095 270.269C108.095 281.948 117.625 291.503 129.273 291.503H172.475C184.122 291.503 193.653 281.948 193.653 270.269C193.653 258.59 184.122 249.035 172.475 249.035Z" stroke="#333333" stroke-width="2.8" stroke-linecap="round"></path><path fill-rule="evenodd" clip-rule="evenodd" d="M171.092 283.475H130.656C123.344 283.475 117.417 277.532 117.417 270.201C117.417 262.87 123.344 256.927 130.656 256.927H171.092C178.404 256.927 184.331 262.87 184.331 270.201C184.331 277.532 178.404 283.475 171.092 283.475Z" fill="#D9D9D9"></path><path fill-rule="evenodd" clip-rule="evenodd" d="M171.092 283.475H130.656C123.344 283.475 117.417 277.532 117.417 270.201C117.417 262.87 123.344 256.927 130.656 256.927H171.092C178.404 256.927 184.331 262.87 184.331 270.201C184.331 277.532 178.404 283.475 171.092 283.475Z" stroke="#333333" stroke-width="2.8" stroke-linecap="round"></path><path fill-rule="evenodd" clip-rule="evenodd" d="M163.203 270.269C163.203 273.801 166.058 276.664 169.581 276.664C173.103 276.664 175.96 273.801 175.96 270.269C175.96 266.737 173.103 263.874 169.581 263.874C166.058 263.874 163.203 266.737 163.203 270.269Z" fill="white"></path><path fill-rule="evenodd" clip-rule="evenodd" d="M163.203 270.269C163.203 273.801 166.058 276.664 169.581 276.664C173.103 276.664 175.96 273.801 175.96 270.269C175.96 266.737 173.103 263.874 169.581 263.874C166.058 263.874 163.203 266.737 163.203 270.269Z" stroke="#333333" stroke-width="2.8" stroke-linecap="round"></path><path fill-rule="evenodd" clip-rule="evenodd" d="M144.448 270.269C144.448 273.801 147.303 276.664 150.826 276.664C154.349 276.664 157.205 273.801 157.205 270.269C157.205 266.737 154.349 263.874 150.826 263.874C147.303 263.874 144.448 266.737 144.448 270.269Z" fill="white"></path><path fill-rule="evenodd" clip-rule="evenodd" d="M144.448 270.269C144.448 273.801 147.303 276.664 150.826 276.664C154.349 276.664 157.205 273.801 157.205 270.269C157.205 266.737 154.349 263.874 150.826 263.874C147.303 263.874 144.448 266.737 144.448 270.269Z" stroke="#333333" stroke-width="2.8" stroke-linecap="round"></path><path fill-rule="evenodd" clip-rule="evenodd" d="M125.693 270.269C125.693 273.801 128.549 276.664 132.072 276.664C135.594 276.664 138.45 273.801 138.45 270.269C138.45 266.737 135.594 263.874 132.072 263.874C128.549 263.874 125.693 266.737 125.693 270.269Z" fill="white"></path><path fill-rule="evenodd" clip-rule="evenodd" d="M125.693 270.269C125.693 273.801 128.549 276.664 132.072 276.664C135.594 276.664 138.45 273.801 138.45 270.269C138.45 266.737 135.594 263.874 132.072 263.874C128.549 263.874 125.693 266.737 125.693 270.269Z" stroke="#333333" stroke-width="2.8" stroke-linecap="round"></path><path fill-rule="evenodd" clip-rule="evenodd" d="M158.619 282.407L165.923 282.879L168.316 276.205L164.791 274.02L163.294 268.916L166.188 264.913L172.268 264.381L174.908 257.02L167.847 256.67L170.585 249.035H133.256C133.103 249.035 131.354 249.043 131.203 249.047V275.703L136.792 275.888C136.792 273.452 136.792 277.923 136.794 278.006C136.821 279.522 137.092 280.978 137.571 282.336C137.69 282.673 133.03 283.003 133.173 283.328C135.305 288.144 140.916 291.503 146.51 291.503H145.717C151.501 291.503 156.662 287.864 158.619 282.407Z" fill="#333333"></path><path fill-rule="evenodd" clip-rule="evenodd" d="M192.95 191.337C192.95 192.891 191.693 194.151 190.143 194.151C188.593 194.151 187.336 192.891 187.336 191.337C187.336 189.783 188.593 188.523 190.143 188.523C191.693 188.523 192.95 189.783 192.95 191.337Z" fill="#A6E2B4"></path><path fill-rule="evenodd" clip-rule="evenodd" d="M200.74 191.337C200.74 192.891 199.483 194.151 197.933 194.151C196.384 194.151 195.127 192.891 195.127 191.337C195.127 189.783 196.384 188.523 197.933 188.523C199.483 188.523 200.74 189.783 200.74 191.337Z" fill="#333333"></path><path fill-rule="evenodd" clip-rule="evenodd" d="M136.792 275.888C136.792 273.452 136.792 277.923 136.794 278.006C136.82 279.522 137.093 280.978 137.571 282.336C137.621 282.476 136.84 282.615 135.925 282.753V283.475H158.181C158.34 283.127 158.488 282.771 158.618 282.407L165.923 282.88L168.316 276.205L164.791 274.02L163.294 268.916L166.189 264.913L172.269 264.382L174.908 257.02L173.033 256.927H138.449" fill="#333333"></path><path d="M224.491 249.035H198.796" stroke="#333333" stroke-width="2.8" stroke-linecap="round"></path><path fill-rule="evenodd" clip-rule="evenodd" d="M175.85 237.62H132.38C130.81 237.62 129.537 238.896 129.537 240.47V246.185C129.537 247.759 130.81 249.035 132.38 249.035H175.85C177.42 249.035 178.693 247.759 178.693 246.185V240.47C178.693 238.896 177.42 237.62 175.85 237.62Z" fill="#9E9E9E"></path><path fill-rule="evenodd" clip-rule="evenodd" d="M175.85 237.62H132.38C130.81 237.62 129.537 238.896 129.537 240.47V246.185C129.537 247.759 130.81 249.035 132.38 249.035H175.85C177.42 249.035 178.693 247.759 178.693 246.185V240.47C178.693 238.896 177.42 237.62 175.85 237.62Z" stroke="#333333" stroke-width="2.8" stroke-linecap="round"></path><path fill-rule="evenodd" clip-rule="evenodd" d="M227.304 237.62H172.424C170.854 237.62 169.581 238.896 169.581 240.47V246.185C169.581 247.759 170.854 249.035 172.424 249.035H227.304C228.874 249.035 230.147 247.759 230.147 246.185V240.47C230.147 238.896 228.874 237.62 227.304 237.62Z" fill="#D9D9D9"></path><path fill-rule="evenodd" clip-rule="evenodd" d="M227.304 237.62H172.424C170.854 237.62 169.581 238.896 169.581 240.47V246.185C169.581 247.759 170.854 249.035 172.424 249.035H227.304C228.874 249.035 230.147 247.759 230.147 246.185V240.47C230.147 238.896 228.874 237.62 227.304 237.62Z" stroke="#333333" stroke-width="2.8" stroke-linecap="round"></path><path fill-rule="evenodd" clip-rule="evenodd" d="M139.681 191.881H154.054C158.905 191.881 162.838 195.824 162.838 200.687V217.457C162.838 220.134 162.375 222.791 161.472 225.311L148.731 260.844C146.775 266.301 141.613 269.94 135.83 269.94H135.824H128.571" fill="#D9D9D9"></path><path d="M139.681 191.881H154.054C158.905 191.881 162.838 195.824 162.838 200.687V217.457C162.838 220.134 162.375 222.791 161.472 225.311L148.731 260.844C146.775 266.301 141.613 269.94 135.83 269.94H135.824H128.571" stroke="#333333" stroke-width="2.8" stroke-linecap="round"></path><path fill-rule="evenodd" clip-rule="evenodd" d="M154.786 217.456V200.687C154.786 195.823 150.853 191.88 146.002 191.88H131.629C121.927 191.88 114.062 199.766 114.062 209.494V256.193C114.062 263.785 120.2 269.939 127.772 269.939H127.778C133.562 269.939 138.723 266.301 140.679 260.844L153.42 225.311C154.324 222.792 154.786 220.134 154.786 217.456Z" fill="white"></path><path fill-rule="evenodd" clip-rule="evenodd" d="M154.786 217.456V200.687C154.786 195.823 150.853 191.88 146.002 191.88H131.629C121.927 191.88 114.062 199.766 114.062 209.494V256.193C114.062 263.785 120.2 269.939 127.772 269.939H127.778C133.562 269.939 138.723 266.301 140.679 260.844L153.42 225.311C154.324 222.792 154.786 220.134 154.786 217.456Z" stroke="#333333" stroke-width="2.8" stroke-linecap="round"></path><path fill-rule="evenodd" clip-rule="evenodd" d="M133.294 215.873C129.379 215.873 126.207 212.693 126.207 208.768C126.207 204.844 129.379 201.663 133.294 201.663C137.208 201.663 140.38 204.844 140.38 208.768C140.38 212.693 137.208 215.873 133.294 215.873Z" stroke="#333333" stroke-width="2.8" stroke-linecap="round"></path><path d="M119.652 243.988H125.132C126.826 243.988 128.451 243.313 129.649 242.112L132.258 239.495C133.456 238.295 135.081 237.62 136.775 237.62H157.058" stroke="#333333" stroke-width="2.8" stroke-linecap="round"></path></svg> 